<svg id="g4" xmlns="http://www.w3.org/2000/svg" viewBox="0 0 400 138.365">
  <path id="path77" d="M60.228,90.729C52.107,82.379,44.9,78.947,38.9,77.4h.172c11.782-1.716,21.5-12.811,21.5-24.879,0-13.154-11.038-24.936-24.192-24.936H6.753a34.538,34.538,0,0,1,6.806-7.549,43.87,43.87,0,0,1,17.9-8.293c12.239-2.8,25.393-.858,35.745,6.406A37.232,37.232,0,0,1,82.876,42.516c.8,4.747.629,10.867.8,15.728.057,5.147.114,10.867.114,15.957,0,7.092.4,14.127.172,21.218a44.991,44.991,0,0,1-.686,6.806l.343.172a39.728,39.728,0,0,0,1.315-6.806c.743-7.092.858-14.241,1.029-21.39,0-6.863.629-28.882.343-32.085C85.393,26.788,76.814,12.09,62.973,4.826A41.648,41.648,0,0,0,39.982.136C23.8,1.509,12.358,13.405,6.01,27.532l-.229.458h14.47c13.211.744,30.541,4.633,30.541,24.478S33.233,76.431,20.079,77.175H11.214v.458h8.979c2.688.114,14.641,1.544,29.34,17.73,11.324,12.525,26.938,18.816,43.237,12.525-16.414,4.575-20.818-5.09-32.542-17.158Zm-7.95,36.6a60.561,60.561,0,0,1-9.094.458c-13.9-.114-27.853-7.378-35-19.5A36.958,36.958,0,0,1,3.15,91.873c-.114-2.574-.229-5.2-.286-7.778-.172-6.062-.057-14.584-.172-20.761,0-6.005-.343-14.813-.286-20.7A48.042,48.042,0,0,1,3.093,35.6H2.807a41.473,41.473,0,0,0-1.487,6.92C.4,48.464.576,57.272.462,63.334c0,6.12-.515,27.681-.458,31.284.343,12.925,6.234,25.851,16.3,34.144,10.352,8.636,25.279,12.068,38.2,7.721,9.666-3.489,17.272-11.1,22.191-19.846l-.343-.172c-6.12,6.749-15.385,9.837-24.078,10.867" fill="#fff"/>
  <path id="path3" d="M142.937,98.909c1.972-1.97,3.433-2.371,5.15-2.371a6.894,6.894,0,0,1,2.191.365,4.326,4.326,0,0,1,1.717,1.2,5.815,5.815,0,0,1,1.132,2.043,10.141,10.141,0,0,1,.4,2.955v5.07H139.211c.11-.584.365-1.787.475-2.189a3.794,3.794,0,0,0,.11-.438c.183-.657.438-1.678.767-2.553A11.387,11.387,0,0,1,142.937,98.909Zm13.733,0a9.064,9.064,0,0,0-1.534-2.955,6.9,6.9,0,0,0-2.411-1.933,7.21,7.21,0,0,0-3.251-.693,8.433,8.433,0,0,0-2.922.547,9,9,0,0,0-2.776,1.641,12.318,12.318,0,0,0-2.411,2.809,15.938,15.938,0,0,0-1.79,4.049l-.219.766V94.823h-3.47v11.308a11.84,11.84,0,0,1-.365,3.1,6.836,6.836,0,0,1-1.205,2.48,5.749,5.749,0,0,1-2.155,1.641,7.849,7.849,0,0,1-3.251.584,9.6,9.6,0,0,1-2.922-.438,6.486,6.486,0,0,1-4.091-3.94,11.493,11.493,0,0,1-.84-5.909.462.462,0,0,1,.036-.219,25.609,25.609,0,0,1,.986-4.377l.073-.255-.621-.255-.146.219a22.264,22.264,0,0,0-2.411,5c-1.424,5.581.4,8.791,1.644,10.214a10.1,10.1,0,0,0,8.181,3.392,11.6,11.6,0,0,0,3.4-.511,10.749,10.749,0,0,0,2.958-1.5,10.921,10.921,0,0,0,2.3-2.371,10.331,10.331,0,0,0,1.424-3.21h18.335v-7.04a12.6,12.6,0,0,0-.548-3.83Zm126.116,0c1.972-1.97,3.433-2.371,5.15-2.371a6.894,6.894,0,0,1,2.191.365,4.326,4.326,0,0,1,1.717,1.2,5.815,5.815,0,0,1,1.132,2.043,10.142,10.142,0,0,1,.4,2.955v5.07h-14.39c.146-.584.4-1.787.511-2.189a3.794,3.794,0,0,0,.11-.438c.183-.657.4-1.678.73-2.553a12.6,12.6,0,0,1,2.447-4.085m13.733,0a9.063,9.063,0,0,0-1.534-2.955,6.9,6.9,0,0,0-2.411-1.933,7.21,7.21,0,0,0-3.251-.693,8.433,8.433,0,0,0-2.922.547,9,9,0,0,0-2.776,1.641,12.319,12.319,0,0,0-2.411,2.809,15.939,15.939,0,0,0-1.79,4.049l-.219.766V83.114H275.7v25.1H270a2.274,2.274,0,0,1-1.972-1.751,6.315,6.315,0,0,1-.256-1.751V94.823H264.2v11.162c-.073,1.532-.073,2.152-1.79,2.189h-4.821c-2.264,0-2.52-2.663-2.557-3.794V94.823h-3.616v14.226c0,2.809-.4,4.487-1.351,5.435-.657.693-1.68.912-3.47.766l-.329-.036v.657l.183.073a7.941,7.941,0,0,0,2.885.547,4.67,4.67,0,0,0,4.164-2.043,13.483,13.483,0,0,0,1.461-6.384,3.175,3.175,0,0,0,2.776,1.605H263.1c2.009,0,3.543-.8,4.2-2.189a3.183,3.183,0,0,0,3.068,2.189h26.589v-7.04a9.662,9.662,0,0,0-.438-3.721M228.183,91.1a2.069,2.069,0,0,0,1.571-.657,2.288,2.288,0,0,0,0-3.21,2.125,2.125,0,0,0-1.571-.657,2.149,2.149,0,0,0-1.607.657,2.262,2.262,0,0,0,1.607,3.867Zm5.515,15.029a11.84,11.84,0,0,1-.365,3.1,6.836,6.836,0,0,1-1.205,2.48,5.749,5.749,0,0,1-2.155,1.641,7.849,7.849,0,0,1-3.251.584,9.6,9.6,0,0,1-2.922-.438,6.486,6.486,0,0,1-4.091-3.94,11.493,11.493,0,0,1-.84-5.909.462.462,0,0,1,.036-.219,25.608,25.608,0,0,1,.986-4.377l.073-.255-.621-.255-.146.219a22.264,22.264,0,0,0-2.411,5c-1.424,5.581.4,8.791,1.644,10.214a10.1,10.1,0,0,0,8.181,3.392,11.6,11.6,0,0,0,3.4-.511,10.748,10.748,0,0,0,2.958-1.5,10.921,10.921,0,0,0,2.3-2.371,11.955,11.955,0,0,0,1.863-6.858V94.823H233.7Zm-37.364,2.043H189.76c-.767,0-2.484-.365-2.557-3.794V94.823h-3.616v14.226c0,2.809-.4,4.487-1.351,5.435-.657.693-1.68.912-3.47.766l-.329-.036v.657l.183.073a7.94,7.94,0,0,0,2.885.547,4.67,4.67,0,0,0,4.164-2.043,13.483,13.483,0,0,0,1.461-6.383,3.175,3.175,0,0,0,2.776,1.6h10.007V83.041H196.3Zm66.181,3.9a2.207,2.207,0,0,0-1.607.657,2.144,2.144,0,0,0-.657,1.605,2.285,2.285,0,0,0,.657,1.641,2.265,2.265,0,0,0,3.872-1.641,2.144,2.144,0,0,0-.657-1.605,2.207,2.207,0,0,0-1.607-.657m5.552,0a2.207,2.207,0,0,0-1.607.657,2.236,2.236,0,0,0-.694,1.605,2.178,2.178,0,0,0,.694,1.641,2.265,2.265,0,0,0,3.872-1.641,2.144,2.144,0,0,0-.657-1.605A2.268,2.268,0,0,0,268.067,112.077ZM241.4,83.114h3.579v26.628H241.4Zm-37.254,0h3.579v26.628h-3.579ZM177.2,94.823H173.58v13.351h-8.547V83.114h-3.579v26.628H177.2Zm-1.863,17.254a2.207,2.207,0,0,0-1.607.657,2.245,2.245,0,0,0,0,3.246,2.265,2.265,0,0,0,3.872-1.641,2.144,2.144,0,0,0-.657-1.605,2.207,2.207,0,0,0-1.607-.657m-5.552,0a2.207,2.207,0,0,0-1.607.657,2.144,2.144,0,0,0-.657,1.605,2.285,2.285,0,0,0,.657,1.641,2.265,2.265,0,0,0,3.872-1.641,2.144,2.144,0,0,0-.657-1.605,2.207,2.207,0,0,0-1.607-.657M149.329,91.1a2.069,2.069,0,0,0,1.571-.657,2.288,2.288,0,0,0,0-3.21,2.125,2.125,0,0,0-1.571-.657,2.149,2.149,0,0,0-1.607.657,2.288,2.288,0,0,0,0,3.21A2.094,2.094,0,0,0,149.329,91.1Zm62.377-44.569H199.927L205.856,33ZM206.257,26.8,189.992,64.251h2.324l6.731-15.543h13.621L219.4,64.251h5.689L208.821,26.8ZM395.833,59.661l-4.567-7.812a8.5,8.5,0,0,0-4.487-3.785c5.849-1.289,9.7-5.315,9.7-10.55,0-6.2-5.849-10.791-13.621-10.791H368.19V64.17h5.368V28.495h8.413c5.368,0,8.894,3.543,8.894,9.02,0,5.154-3.045,8.7-8.333,9.342a48.806,48.806,0,0,1-5.609.242h-1.042v.483h.962c2.484,0,4.006,0,5.128.4,1.2.4,2.243,1.691,3.2,3.382.641,1.047,5.208,9.342,5.288,9.422a9.635,9.635,0,0,0,2.8,3.141l.08.08H400l-.962-.725a8.974,8.974,0,0,1-3.205-3.624M338.945,46.534H327.166L333.1,33ZM333.5,26.8,317.15,64.251h2.324L326.2,48.708h13.621l6.731,15.543h5.689L335.98,26.8ZM147.525,59.661l-4.567-7.812a8.5,8.5,0,0,0-4.487-3.785c5.849-1.289,9.7-5.315,9.7-10.55,0-6.2-5.849-10.791-13.621-10.791H119.882V64.17h5.368V28.495h8.413c5.368,0,8.894,3.543,8.894,9.02,0,5.154-3.045,8.7-8.333,9.342a48.807,48.807,0,0,1-5.609.242h-1.042v.483h.962c2.484,0,4.006,0,5.128.4,1.2.4,2.244,1.691,3.205,3.382.641,1.047,5.208,9.342,5.288,9.422a9.636,9.636,0,0,0,2.8,3.141l.08.081h6.65l-.962-.725a10.313,10.313,0,0,1-3.205-3.624M355.53,26.723H360.9V64.17H355.53ZM293.273,44.118H272.6V26.723h-5.368V64.17H272.6V46.292h20.672V64.17h5.368V26.723h-5.368ZM233.74,28.575h7.852a14.045,14.045,0,0,1,10.817,4.59c2.644,3.06,4.086,7.248,4.086,12.321,0,4.993-1.442,9.261-4.086,12.321a14.045,14.045,0,0,1-10.817,4.59H233.74Zm8.493-1.852H228.292V64.17h13.942c11.3,0,19.871-8.053,19.871-18.764-.08-10.63-8.573-18.683-19.871-18.683Zm-48.876,0-12.5,19.167-12.58-19.167h-6.09l14.1,21.5V64.251h5.368V48.225l14.1-21.5Zm-39.662,0h5.368V64.17h-5.368Z" fill="#fff"/>
</svg>
