<svg width="259.083" height="24.028" viewBox="0 0 259.083 24.028" xmlns="http://www.w3.org/2000/svg">
    <g fill="#fff" fill-rule="evenodd">
        <path d="M246.804 9.398c-4.493-.356-7.725-.548-7.725-2.487 0-2.066 3.75-2.615 6.82-2.583 3.683.032 6.753.807 9.242 2.712l2.845-3.583C255.108 1.228 250.843 0 245.899 0c-6.981 0-12.023 2.584-12.023 7.299 0 4.844 6.013 6.265 12.474 6.815 5.203.451 7.53.969 7.53 2.842 0 1.872-2.327 2.744-6.915 2.744-4.623 0-8.209-1.195-10.987-3.746l-2.973 3.52c3.457 2.939 8.11 4.554 13.83 4.554 8.014 0 12.248-3.1 12.248-7.557 0-4.974-5.073-6.491-12.28-7.073M226.187 9.596h-15.416V.715h-5.17v22.607h5.17v-9.204h15.416v9.204h5.17V.715h-5.17v8.88M178.491 5.181h9.824v18.15h5.171V5.18h9.89V.724H178.49v4.457M171.097 23.322h5.17V.716h-5.17zM152.788 12.664 143.222.715h-5.623v22.607h5.01V7.594l10.179 12.111 9.921-12.11v15.727h5.17V.715h-5.525l-9.566 11.949M123.018 9.398c-4.492-.356-7.723-.548-7.723-2.487 0-2.066 3.748-2.615 6.818-2.583 3.684.032 6.754.807 9.243 2.712l2.844-3.583C131.323 1.228 127.057 0 122.113 0c-6.98 0-12.022 2.584-12.022 7.299 0 4.844 6.012 6.265 12.475 6.815 5.203.451 7.529.969 7.529 2.842 0 1.873-2.326 2.744-6.916 2.744-4.621 0-8.208-1.194-10.987-3.746l-2.974 3.52c3.458 2.939 8.112 4.554 13.832 4.554 8.014 0 12.248-3.1 12.248-7.557 0-4.974-5.073-6.491-12.28-7.073M93.868 24.003c-3.918 0-7.192-.88-9.62-2.522a13.026 13.026 0 0 0 2.497-4.308c1.574 1.552 4.024 2.377 7.123 2.377 5.585 0 9.104-2.71 9.104-7.549s-3.519-7.549-9.104-7.549c-5.585 0-9.104 2.71-9.104 7.55 0 7.548-5.553 12-14.366 12-8.813 0-14.366-4.452-14.366-12C56.032 4.451 61.585 0 70.398 0c3.918 0 7.192.88 9.62 2.522a13.018 13.018 0 0 0-2.087 3.274c-.151.34-.289.687-.412 1.041-1.58-1.557-4.035-2.385-7.12-2.385-5.586 0-9.105 2.71-9.105 7.55 0 4.839 3.487 7.549 9.104 7.549 5.585 0 9.104-2.71 9.104-7.55C79.502 4.452 85.055 0 93.868 0c8.813 0 14.366 4.452 14.366 12.001 0 7.55-5.553 12.002-14.366 12.002M48.585 9.49H33.17V.61H28v22.606h5.17v-9.204h15.415v9.204h5.17V.61h-5.17v8.88M13.8 9.398c-4.493-.356-7.724-.548-7.724-2.487 0-2.066 3.749-2.615 6.82-2.583 3.682.032 6.753.807 9.241 2.712l2.844-3.583C22.105 1.228 17.84 0 12.895 0 5.915 0 .873 2.584.873 7.299c0 4.844 6.012 6.265 12.475 6.815 5.201.451 7.529.969 7.529 2.842 0 1.872-2.328 2.744-6.916 2.744-4.621 0-8.208-1.195-10.987-3.746L0 19.474c3.459 2.939 8.112 4.554 13.832 4.554 8.014 0 12.247-3.1 12.247-7.557 0-4.974-5.073-6.491-12.28-7.073"/>
    </g>
</svg>
